<svg width="224" height="104" viewBox="0 0 224 104" fill="none" xmlns="http://www.w3.org/2000/svg">
<rect width="224" height="104" fill="#0B1519"/>
<path d="M18.0003 13.0001L12.794 18.2939C12.6217 18.4841 12.5291 18.7333 12.5354 18.9899C12.5417 19.2465 12.6465 19.4909 12.828 19.6724C13.0095 19.8539 13.2538 19.9587 13.5105 19.965C13.7671 19.9713 14.0163 19.8787 14.2065 19.7064L20.4128 13.4126C20.7575 13.0322 20.9427 12.5337 20.9301 12.0205C20.9174 11.5072 20.7079 11.0185 20.3449 10.6555C19.9819 10.2925 19.4931 10.0829 18.9799 10.0703C18.4667 10.0577 17.9682 10.2429 17.5878 10.5876L11.3815 16.8814C10.8196 17.4433 10.5039 18.2054 10.5039 19.0001C10.5039 19.7948 10.8196 20.5569 11.3815 21.1189C11.9434 21.6808 12.7056 21.9965 13.5003 21.9965C14.295 21.9965 15.0571 21.6808 15.619 21.1189L20.7503 16.0001" stroke="#E7E9EA" stroke-linecap="round" stroke-linejoin="round"/>
<path d="M38.5875 17.808L37.2375 14.31C37.1975 14.206 37.1555 14.086 37.1115 13.95C37.0675 13.81 37.0255 13.662 36.9855 13.506C36.9015 13.83 36.8155 14.1 36.7275 14.316L35.3775 17.808H38.5875ZM41.0115 21H40.1115C40.0075 21 39.9235 20.974 39.8595 20.922C39.7955 20.87 39.7475 20.804 39.7155 20.724L38.9115 18.648H35.0535L34.2495 20.724C34.2255 20.796 34.1795 20.86 34.1115 20.916C34.0435 20.972 33.9595 21 33.8595 21H32.9595L36.3975 12.402H37.5735L41.0115 21ZM43.4413 21.096C42.9613 21.096 42.5913 20.962 42.3313 20.694C42.0753 20.426 41.9473 20.04 41.9473 19.536V15.816H41.2153C41.1513 15.816 41.0973 15.798 41.0533 15.762C41.0093 15.722 40.9873 15.662 40.9873 15.582V15.156L41.9833 15.03L42.2293 13.152C42.2413 13.092 42.2673 13.044 42.3073 13.008C42.3513 12.968 42.4073 12.948 42.4753 12.948H43.0153V15.042H45.8773L46.1233 13.152C46.1353 13.092 46.1613 13.044 46.2013 13.008C46.2453 12.968 46.3013 12.948 46.3693 12.948H46.9093V15.042H48.6673V15.816H46.9093V19.464C46.9093 19.72 46.9713 19.91 47.0953 20.034C47.2233 20.158 47.3833 20.22 47.5753 20.22C47.6873 20.22 47.7833 20.206 47.8633 20.178C47.9473 20.146 48.0193 20.112 48.0793 20.076C48.1393 20.04 48.1893 20.008 48.2293 19.98C48.2733 19.948 48.3113 19.932 48.3433 19.932C48.4033 19.932 48.4533 19.966 48.4933 20.034L48.8113 20.544C48.6233 20.716 48.3993 20.852 48.1393 20.952C47.8793 21.048 47.6113 21.096 47.3353 21.096C46.8593 21.096 46.4913 20.962 46.2313 20.694C45.9713 20.426 45.8413 20.04 45.8413 19.536V15.816H43.0153V19.464C43.0153 19.72 43.0773 19.91 43.2013 20.034C43.3253 20.158 43.4853 20.22 43.6813 20.22C43.7933 20.22 43.8893 20.206 43.9693 20.178C44.0533 20.146 44.1253 20.112 44.1853 20.076C44.2453 20.04 44.2953 20.008 44.3353 19.98C44.3793 19.948 44.4173 19.932 44.4493 19.932C44.5053 19.932 44.5553 19.966 44.5993 20.034L44.9113 20.544C44.7273 20.716 44.5053 20.852 44.2453 20.952C43.9853 21.048 43.7173 21.096 43.4413 21.096ZM53.1087 18.264C52.6167 18.28 52.1967 18.32 51.8487 18.384C51.5047 18.444 51.2227 18.524 51.0027 18.624C50.7867 18.724 50.6287 18.842 50.5287 18.978C50.4327 19.114 50.3847 19.266 50.3847 19.434C50.3847 19.594 50.4107 19.732 50.4627 19.848C50.5147 19.964 50.5847 20.06 50.6727 20.136C50.7647 20.208 50.8707 20.262 50.9907 20.298C51.1147 20.33 51.2467 20.346 51.3867 20.346C51.5747 20.346 51.7467 20.328 51.9027 20.292C52.0587 20.252 52.2047 20.196 52.3407 20.124C52.4807 20.052 52.6127 19.966 52.7367 19.866C52.8647 19.766 52.9887 19.652 53.1087 19.524V18.264ZM49.6587 15.78C49.9947 15.456 50.3567 15.214 50.7447 15.054C51.1327 14.894 51.5627 14.814 52.0347 14.814C52.3747 14.814 52.6767 14.87 52.9407 14.982C53.2047 15.094 53.4267 15.25 53.6067 15.45C53.7867 15.65 53.9227 15.892 54.0147 16.176C54.1067 16.46 54.1527 16.772 54.1527 17.112V21H53.6787C53.5747 21 53.4947 20.984 53.4387 20.952C53.3827 20.916 53.3387 20.848 53.3067 20.748L53.1867 20.172C53.0267 20.32 52.8707 20.452 52.7187 20.568C52.5667 20.68 52.4067 20.776 52.2387 20.856C52.0707 20.932 51.8907 20.99 51.6987 21.03C51.5107 21.074 51.3007 21.096 51.0687 21.096C50.8327 21.096 50.6107 21.064 50.4027 21C50.1947 20.932 50.0127 20.832 49.8567 20.7C49.7047 20.568 49.5827 20.402 49.4907 20.202C49.4027 19.998 49.3587 19.758 49.3587 19.482C49.3587 19.242 49.4247 19.012 49.5567 18.792C49.6887 18.568 49.9027 18.37 50.1987 18.198C50.4947 18.026 50.8807 17.886 51.3567 17.778C51.8327 17.666 52.4167 17.602 53.1087 17.586V17.112C53.1087 16.64 53.0067 16.284 52.8027 16.044C52.5987 15.8 52.3007 15.678 51.9087 15.678C51.6447 15.678 51.4227 15.712 51.2427 15.78C51.0667 15.844 50.9127 15.918 50.7807 16.002C50.6527 16.082 50.5407 16.156 50.4447 16.224C50.3527 16.288 50.2607 16.32 50.1687 16.32C50.0967 16.32 50.0347 16.302 49.9827 16.266C49.9307 16.226 49.8867 16.178 49.8507 16.122L49.6587 15.78ZM60.0575 16.002C60.0255 16.046 59.9935 16.08 59.9615 16.104C59.9295 16.128 59.8855 16.14 59.8295 16.14C59.7695 16.14 59.7035 16.116 59.6315 16.068C59.5595 16.016 59.4695 15.96 59.3615 15.9C59.2575 15.84 59.1275 15.786 58.9715 15.738C58.8195 15.686 58.6315 15.66 58.4075 15.66C58.1075 15.66 57.8435 15.714 57.6155 15.822C57.3875 15.926 57.1955 16.078 57.0395 16.278C56.8875 16.478 56.7715 16.72 56.6915 17.004C56.6155 17.288 56.5775 17.606 56.5775 17.958C56.5775 18.326 56.6195 18.654 56.7035 18.942C56.7875 19.226 56.9055 19.466 57.0575 19.662C57.2135 19.854 57.3995 20.002 57.6155 20.106C57.8355 20.206 58.0815 20.256 58.3535 20.256C58.6135 20.256 58.8275 20.226 58.9955 20.166C59.1635 20.102 59.3015 20.032 59.4095 19.956C59.5215 19.88 59.6135 19.812 59.6855 19.752C59.7615 19.688 59.8355 19.656 59.9075 19.656C59.9955 19.656 60.0635 19.69 60.1115 19.758L60.4115 20.148C60.2795 20.312 60.1295 20.452 59.9615 20.568C59.7935 20.684 59.6115 20.782 59.4155 20.862C59.2235 20.938 59.0215 20.994 58.8095 21.03C58.5975 21.066 58.3815 21.084 58.1615 21.084C57.7815 21.084 57.4275 21.014 57.0995 20.874C56.7755 20.734 56.4935 20.532 56.2535 20.268C56.0135 20 55.8255 19.672 55.6895 19.284C55.5535 18.896 55.4855 18.454 55.4855 17.958C55.4855 17.506 55.5475 17.088 55.6715 16.704C55.7995 16.32 55.9835 15.99 56.2235 15.714C56.4675 15.434 56.7655 15.216 57.1175 15.06C57.4735 14.904 57.8815 14.826 58.3415 14.826C58.7695 14.826 59.1455 14.896 59.4695 15.036C59.7975 15.172 60.0875 15.366 60.3395 15.618L60.0575 16.002ZM62.68 15.732C62.94 15.456 63.228 15.236 63.544 15.072C63.86 14.908 64.224 14.826 64.636 14.826C64.968 14.826 65.26 14.882 65.512 14.994C65.768 15.102 65.98 15.258 66.148 15.462C66.32 15.662 66.45 15.904 66.538 16.188C66.626 16.472 66.67 16.786 66.67 17.13V21H65.596V17.13C65.596 16.67 65.49 16.314 65.278 16.062C65.07 15.806 64.752 15.678 64.324 15.678C64.008 15.678 63.712 15.754 63.436 15.906C63.164 16.058 62.912 16.264 62.68 16.524V21H61.606V12.162H62.68V15.732ZM68.3454 21V14.922H68.9874C69.1394 14.922 69.2334 14.996 69.2694 15.144L69.3474 15.768C69.5714 15.492 69.8234 15.266 70.1034 15.09C70.3834 14.914 70.7074 14.826 71.0754 14.826C71.4834 14.826 71.8134 14.94 72.0654 15.168C72.3214 15.396 72.5054 15.704 72.6174 16.092C72.7054 15.872 72.8174 15.682 72.9534 15.522C73.0934 15.362 73.2494 15.23 73.4214 15.126C73.5934 15.022 73.7754 14.946 73.9674 14.898C74.1634 14.85 74.3614 14.826 74.5614 14.826C74.8814 14.826 75.1654 14.878 75.4134 14.982C75.6654 15.082 75.8774 15.23 76.0494 15.426C76.2254 15.622 76.3594 15.864 76.4514 16.152C76.5434 16.436 76.5894 16.762 76.5894 17.13V21H75.5154V17.13C75.5154 16.654 75.4114 16.294 75.2034 16.05C74.9954 15.802 74.6954 15.678 74.3034 15.678C74.1274 15.678 73.9594 15.71 73.7994 15.774C73.6434 15.834 73.5054 15.924 73.3854 16.044C73.2654 16.164 73.1694 16.316 73.0974 16.5C73.0294 16.68 72.9954 16.89 72.9954 17.13V21H71.9214V17.13C71.9214 16.642 71.8234 16.278 71.6274 16.038C71.4314 15.798 71.1454 15.678 70.7694 15.678C70.5054 15.678 70.2614 15.75 70.0374 15.894C69.8134 16.034 69.6074 16.226 69.4194 16.47V21H68.3454ZM82.3286 17.298C82.3286 17.05 82.2926 16.824 82.2206 16.62C82.1526 16.412 82.0506 16.234 81.9146 16.086C81.7826 15.934 81.6206 15.818 81.4286 15.738C81.2366 15.654 81.0186 15.612 80.7746 15.612C80.2626 15.612 79.8566 15.762 79.5566 16.062C79.2606 16.358 79.0766 16.77 79.0046 17.298H82.3286ZM83.1926 20.148C83.0606 20.308 82.9026 20.448 82.7186 20.568C82.5346 20.684 82.3366 20.78 82.1246 20.856C81.9166 20.932 81.7006 20.988 81.4766 21.024C81.2526 21.064 81.0306 21.084 80.8106 21.084C80.3906 21.084 80.0026 21.014 79.6466 20.874C79.2946 20.73 78.9886 20.522 78.7286 20.25C78.4726 19.974 78.2726 19.634 78.1286 19.23C77.9846 18.826 77.9126 18.362 77.9126 17.838C77.9126 17.414 77.9766 17.018 78.1046 16.65C78.2366 16.282 78.4246 15.964 78.6686 15.696C78.9126 15.424 79.2106 15.212 79.5626 15.06C79.9146 14.904 80.3106 14.826 80.7506 14.826C81.1146 14.826 81.4506 14.888 81.7586 15.012C82.0706 15.132 82.3386 15.308 82.5626 15.54C82.7906 15.768 82.9686 16.052 83.0966 16.392C83.2246 16.728 83.2886 17.112 83.2886 17.544C83.2886 17.712 83.2706 17.824 83.2346 17.88C83.1986 17.936 83.1306 17.964 83.0306 17.964H78.9686C78.9806 18.348 79.0326 18.682 79.1246 18.966C79.2206 19.25 79.3526 19.488 79.5206 19.68C79.6886 19.868 79.8886 20.01 80.1206 20.106C80.3526 20.198 80.6126 20.244 80.9006 20.244C81.1686 20.244 81.3986 20.214 81.5906 20.154C81.7866 20.09 81.9546 20.022 82.0946 19.95C82.2346 19.878 82.3506 19.812 82.4426 19.752C82.5386 19.688 82.6206 19.656 82.6886 19.656C82.7766 19.656 82.8446 19.69 82.8926 19.758L83.1926 20.148ZM85.6564 15.804C85.7884 15.656 85.9284 15.522 86.0764 15.402C86.2244 15.282 86.3804 15.18 86.5444 15.096C86.7124 15.008 86.8884 14.942 87.0724 14.898C87.2604 14.85 87.4624 14.826 87.6784 14.826C88.0104 14.826 88.3024 14.882 88.5544 14.994C88.8104 15.102 89.0224 15.258 89.1904 15.462C89.3624 15.662 89.4924 15.904 89.5804 16.188C89.6684 16.472 89.7124 16.786 89.7124 17.13V21H88.6384V17.13C88.6384 16.67 88.5324 16.314 88.3204 16.062C88.1124 15.806 87.7944 15.678 87.3664 15.678C87.0504 15.678 86.7544 15.754 86.4784 15.906C86.2064 16.058 85.9544 16.264 85.7224 16.524V21H84.6484V14.922H85.2904C85.4424 14.922 85.5364 14.996 85.5724 15.144L85.6564 15.804ZM93.1718 21.096C92.6918 21.096 92.3218 20.962 92.0618 20.694C91.8058 20.426 91.6778 20.04 91.6778 19.536V15.816H90.9458C90.8818 15.816 90.8278 15.798 90.7838 15.762C90.7398 15.722 90.7178 15.662 90.7178 15.582V15.156L91.7138 15.03L91.9598 13.152C91.9718 13.092 91.9978 13.044 92.0378 13.008C92.0818 12.968 92.1378 12.948 92.2058 12.948H92.7458V15.042H94.5038V15.816H92.7458V19.464C92.7458 19.72 92.8078 19.91 92.9318 20.034C93.0558 20.158 93.2158 20.22 93.4118 20.22C93.5238 20.22 93.6198 20.206 93.6998 20.178C93.7838 20.146 93.8558 20.112 93.9158 20.076C93.9758 20.04 94.0258 20.008 94.0658 19.98C94.1098 19.948 94.1478 19.932 94.1798 19.932C94.2358 19.932 94.2858 19.966 94.3298 20.034L94.6418 20.544C94.4578 20.716 94.2358 20.852 93.9758 20.952C93.7158 21.048 93.4478 21.096 93.1718 21.096ZM99.1946 15.924C99.1466 16.012 99.0726 16.056 98.9726 16.056C98.9126 16.056 98.8446 16.034 98.7686 15.99C98.6926 15.946 98.5986 15.898 98.4866 15.846C98.3786 15.79 98.2486 15.74 98.0966 15.696C97.9446 15.648 97.7646 15.624 97.5566 15.624C97.3766 15.624 97.2146 15.648 97.0706 15.696C96.9266 15.74 96.8026 15.802 96.6986 15.882C96.5986 15.962 96.5206 16.056 96.4646 16.164C96.4126 16.268 96.3866 16.382 96.3866 16.506C96.3866 16.662 96.4306 16.792 96.5186 16.896C96.6106 17 96.7306 17.09 96.8786 17.166C97.0266 17.242 97.1946 17.31 97.3826 17.37C97.5706 17.426 97.7626 17.488 97.9586 17.556C98.1586 17.62 98.3526 17.692 98.5406 17.772C98.7286 17.852 98.8966 17.952 99.0446 18.072C99.1926 18.192 99.3106 18.34 99.3986 18.516C99.4906 18.688 99.5366 18.896 99.5366 19.14C99.5366 19.42 99.4866 19.68 99.3866 19.92C99.2866 20.156 99.1386 20.362 98.9426 20.538C98.7466 20.71 98.5066 20.846 98.2226 20.946C97.9386 21.046 97.6106 21.096 97.2386 21.096C96.8146 21.096 96.4306 21.028 96.0866 20.892C95.7426 20.752 95.4506 20.574 95.2106 20.358L95.4626 19.95C95.4946 19.898 95.5326 19.858 95.5766 19.83C95.6206 19.802 95.6766 19.788 95.7446 19.788C95.8166 19.788 95.8926 19.816 95.9726 19.872C96.0526 19.928 96.1486 19.99 96.2606 20.058C96.3766 20.126 96.5166 20.188 96.6806 20.244C96.8446 20.3 97.0486 20.328 97.2926 20.328C97.5006 20.328 97.6826 20.302 97.8386 20.25C97.9946 20.194 98.1246 20.12 98.2286 20.028C98.3326 19.936 98.4086 19.83 98.4566 19.71C98.5086 19.59 98.5346 19.462 98.5346 19.326C98.5346 19.158 98.4886 19.02 98.3966 18.912C98.3086 18.8 98.1906 18.706 98.0426 18.63C97.8946 18.55 97.7246 18.482 97.5326 18.426C97.3446 18.366 97.1506 18.304 96.9506 18.24C96.7546 18.176 96.5606 18.104 96.3686 18.024C96.1806 17.94 96.0126 17.836 95.8646 17.712C95.7166 17.588 95.5966 17.436 95.5046 17.256C95.4166 17.072 95.3726 16.85 95.3726 16.59C95.3726 16.358 95.4206 16.136 95.5166 15.924C95.6126 15.708 95.7526 15.52 95.9366 15.36C96.1206 15.196 96.3466 15.066 96.6146 14.97C96.8826 14.874 97.1886 14.826 97.5326 14.826C97.9326 14.826 98.2906 14.89 98.6066 15.018C98.9266 15.142 99.2026 15.314 99.4346 15.534L99.1946 15.924Z" fill="#E7E9EA"/>
<rect x="8" y="32" width="64" height="64" fill="#D9D9D9"/>
<rect x="80" y="32" width="64" height="64" fill="#D9D9D9"/>
<rect x="152" y="32" width="64" height="64" fill="#D9D9D9"/>
</svg>
