<svg width="22" height="20" viewBox="0 0 22 20" fill="none" xmlns="http://www.w3.org/2000/svg">
<path d="M11.125 14.5C13.6103 14.5 15.625 12.4853 15.625 10C15.625 7.51472 13.6103 5.5 11.125 5.5C8.63972 5.5 6.625 7.51472 6.625 10C6.625 12.4853 8.63972 14.5 11.125 14.5Z" stroke="#899194" stroke-linecap="round" stroke-linejoin="round"/>
<path d="M17.6302 5.56523C17.8559 5.88836 18.0535 6.23024 18.2208 6.58711L20.6489 7.93711C20.9521 9.29505 20.9553 10.7028 20.6583 12.0621L18.2208 13.4121C18.0535 13.769 17.8559 14.1109 17.6302 14.434L17.6771 17.2184C16.648 18.1561 15.4301 18.8625 14.1052 19.2902L11.7146 17.8559C11.3213 17.884 10.9266 17.884 10.5333 17.8559L8.15205 19.2809C6.82297 18.861 5.60102 18.1572 4.5708 17.2184L4.61768 14.4434C4.39387 14.1158 4.19638 13.7709 4.02705 13.4121L1.59893 12.0621C1.29574 10.7042 1.29254 9.29642 1.58955 7.93711L4.02705 6.58711C4.19438 6.23024 4.39198 5.88836 4.61768 5.56523L4.5708 2.78086C5.59985 1.84314 6.81779 1.13667 8.14268 0.708984L10.5333 2.14336C10.9266 2.11523 11.3213 2.11523 11.7146 2.14336L14.0958 0.718359C15.4249 1.13826 16.6468 1.842 17.6771 2.78086L17.6302 5.56523Z" stroke="#899194" stroke-linecap="round" stroke-linejoin="round"/>
</svg>
